<svg width="24" height="28" viewBox="0 0 24 28" fill="none" xmlns="http://www.w3.org/2000/svg">
<path d="M11.9998 5.625C17.5054 5.625 21.9686 10.0881 21.9686 15.5938V22.875C21.9686 23.1402 21.8632 23.3946 21.6757 23.5821C21.4881 23.7696 21.2338 23.875 20.9686 23.875H3.03106C2.76584 23.875 2.51149 23.7696 2.32395 23.5821C2.13641 23.3946 2.03106 23.1402 2.03106 22.875V15.5938C2.03106 10.0881 6.49418 5.625 11.9998 5.625ZM11.1248 0.125H12.8748C12.9411 0.125 13.0047 0.151339 13.0516 0.198223C13.0985 0.245107 13.1248 0.308696 13.1248 0.375V3.375C13.1248 3.4413 13.0985 3.50489 13.0516 3.55178C13.0047 3.59866 12.9411 3.625 12.8748 3.625H11.1248C11.0585 3.625 10.9949 3.59866 10.948 3.55178C10.9011 3.50489 10.8748 3.4413 10.8748 3.375V0.375C10.8748 0.308696 10.9011 0.245107 10.948 0.198223C10.9949 0.151339 11.0585 0.125 11.1248 0.125ZM1.53887 3.98938C1.56209 3.96613 1.58966 3.94769 1.62001 3.93511C1.65036 3.92253 1.68289 3.91605 1.71574 3.91605C1.7486 3.91605 1.78113 3.92253 1.81148 3.93511C1.84183 3.94769 1.8694 3.96613 1.89262 3.98938L4.01387 6.11063C4.06072 6.1575 4.08703 6.22107 4.08703 6.28734C4.08703 6.35362 4.06072 6.41718 4.01387 6.46406L2.77637 7.70156C2.72949 7.74841 2.66593 7.77473 2.59965 7.77473C2.53337 7.77473 2.46981 7.74841 2.42293 7.70156L0.301681 5.58031C0.254832 5.53343 0.228516 5.46987 0.228516 5.40359C0.228516 5.33732 0.254832 5.27375 0.301681 5.22687L1.53918 3.98938H1.53887ZM22.4639 3.98938L23.7014 5.22687C23.7481 5.27374 23.7744 5.33724 23.7744 5.40344C23.7744 5.46964 23.7481 5.53313 23.7014 5.58L21.5801 7.70187C21.5569 7.72512 21.5293 7.74356 21.499 7.75614C21.4686 7.76872 21.4361 7.7752 21.4032 7.7752C21.3704 7.7752 21.3379 7.76872 21.3075 7.75614C21.2772 7.74356 21.2496 7.72512 21.2264 7.70187L19.9889 6.46437C19.9656 6.44116 19.9472 6.41358 19.9346 6.38323C19.922 6.35289 19.9155 6.32035 19.9155 6.2875C19.9155 6.25465 19.922 6.22211 19.9346 6.19176C19.9472 6.16142 19.9656 6.13384 19.9889 6.11063L22.1104 3.98938C22.1573 3.94253 22.2209 3.91621 22.2871 3.91621C22.3534 3.91621 22.417 3.94253 22.4639 3.98938ZM1.99981 25.875H21.9998C22.265 25.875 22.5194 25.9804 22.7069 26.1679C22.8944 26.3554 22.9998 26.6098 22.9998 26.875V27.625C22.9998 27.6913 22.9735 27.7549 22.9266 27.8018C22.8797 27.8487 22.8161 27.875 22.7498 27.875H1.24981C1.1835 27.875 1.11991 27.8487 1.07303 27.8018C1.02614 27.7549 0.999806 27.6913 0.999806 27.625V26.875C0.999806 26.6098 1.10516 26.3554 1.2927 26.1679C1.48024 25.9804 1.73459 25.875 1.99981 25.875ZM6.62481 15.9688V23.875H8.62481V15.9688H6.62481Z" fill="#FF0909"/>
</svg>
