<svg width="42" height="38" viewBox="0 0 42 38" fill="none" xmlns="http://www.w3.org/2000/svg">
<path d="M28.6673 36.25V32.4167C28.6673 30.3833 27.8596 28.4333 26.4218 26.9955C24.984 25.5577 23.034 24.75 21.0007 24.75H9.50065C7.46732 24.75 5.51728 25.5577 4.0795 26.9955C2.64172 28.4333 1.83398 30.3833 1.83398 32.4167V36.25M28.6673 1.99533C30.3113 2.42154 31.7673 3.38159 32.8067 4.72479C33.8461 6.06798 34.41 7.71829 34.41 9.41667C34.41 11.115 33.8461 12.7654 32.8067 14.1085C31.7673 15.4517 30.3113 16.4118 28.6673 16.838M40.1673 36.25V32.4167C40.166 30.718 39.6007 29.0678 38.5599 27.7253C37.5192 26.3827 36.0621 25.4238 34.4173 24.9992M22.9173 9.41667C22.9173 13.6508 19.4848 17.0833 15.2507 17.0833C11.0165 17.0833 7.58398 13.6508 7.58398 9.41667C7.58398 5.18248 11.0165 1.75 15.2507 1.75C19.4848 1.75 22.9173 5.18248 22.9173 9.41667Z" stroke="#38E511" stroke-width="2" stroke-linecap="round" stroke-linejoin="round"/>
</svg>
